<?xml version="1.0" encoding="UTF-8"?>
<svg id="Capa_2" data-name="Capa 2" xmlns="http://www.w3.org/2000/svg" viewBox="0 0 1358 337.06">
  <defs>
    <style>
      .cls-1 {
        font-family: Lato-Black, Lato;
        font-size: 323.25px;
        font-weight: 800;
      }

      .cls-1, .cls-2 {
        fill: #fafafa;
      }

      .cls-3 {
        letter-spacing: -.03em;
      }

      .cls-2 {
        stroke-width: 0px;
      }
    </style>
  </defs>
  <g id="objects">
    <g>
      <path class="cls-2" d="M190.38,144.9h-29.29v-50.38c0-31.33-25.49-56.82-56.82-56.82s-56.82,25.49-56.82,56.82v50.38h-29.29v-50.38C18.16,47.05,56.79,8.42,104.27,8.42s86.11,38.63,86.11,86.11v50.38Z"/>
      <path class="cls-2" d="M190.38,94.53v50.38h-29.29v-13.47c11.72-4.69,16.4-14.06,16.4-26.95v-9.96c0-45.32-35.18-82.57-79.67-85.87.47-.04.95-.06,1.43-.09.09,0,.19-.01.28-.02.33-.02.67-.04,1.01-.05.13,0,.27-.01.4-.02.19,0,.38-.02.57-.02.37-.02.75-.02,1.12-.03.54-.01,1.08-.02,1.62-.02,47.48,0,86.11,38.63,86.11,86.11Z"/>
      <path class="cls-2" d="M188.54,306.42H20c-11.05,0-20-8.95-20-20v-130.46c0-11.05,8.95-20,20-20h168.54c11.05,0,20,8.95,20,20v130.46c0,11.05-8.95,20-20,20ZM122.06,225.94c4.92-4.7,7.98-11.32,7.98-18.65,0-14.23-11.54-25.77-25.77-25.77s-25.77,11.54-25.77,25.77c0,7.33,3.06,13.95,7.98,18.65l-3.27,20.51c-.94,5.89,3.61,11.21,9.57,11.21h22.99c5.96,0,10.5-5.32,9.57-11.21l-3.27-20.51Z"/>
      <path class="cls-2" d="M86.7,14.86S27.53,26.26,22.85,90.43h11.13s2.34-50.98,52.72-75.57Z"/>
    </g>
    <text class="cls-1" transform="translate(311 279.37)"><tspan x="0" y="0">SA</tspan><tspan class="cls-3" x="413.43" y="0">R</tspan><tspan x="618.7" y="0">TU</tspan></text>
  </g>
</svg>